:SAMPLES-PER-SECOND 30
:FRAME-RANGE 1-1770
:FULLY-SPECIFIED
:DEGREES
664
root  -10.59 38.9975 -42.48 28.7311 -74.4296 -17.7301
RightUpLeg  -5.53354 -28.3577 -4.51987
RightLeg  46.1023 -0.207149 -0.551084
RightFoot  -6.86658 -0.977423 23.4972
RightToes  6.35937e-011 1.2921e-014 -6.02303e-014
Spine  14.2642 3.20228 1.74933
Spine1  -2.6508 4.8882 -9.17703
HEad  -9.99446 2.87745 -2.87207
LeftShoulder1  1.82025 -4.5714 -15.7691
LeftArm  20.0176 -67.1964 -83.5918
LeftForeArm  26.2536 -34.8292 -6.26418
LeftHand  -0.313572 2.47735 12.2571
RightShoulder  10.2967 45.1831 13.4395
RightArm  -37.0907 48.2418 6.30793
RightForeArm  8.88842 29.8114 6.00421
RightHand  0.0264472 2.81097 0.157899
LeftUpLeg  -35.2708 18.0085 -2.65222
LeftLeg  17.5947 -6.86083 -2.36305
LeftFoot  7.44638 -0.580961 3.23658
LeftToes  3.18074e-010 1.39432e-010 -7.71186e-011
665
root  -11.0375 39.1944 -42.7232 27.7219 -74.2748 -16.5845
RightUpLeg  -4.29208 -26.8392 -5.71219
RightLeg  45.4519 -1.08198 -1.49295
RightFoot  -7.067 -0.935233 23.4493
RightToes  6.35937e-011 1.2921e-014 -6.02303e-014
Spine  13.4686 3.65542 2.57782
Spine1  -2.65902 5.57785 -10.1049
HEad  -8.56326 4.75448 -3.52604
LeftShoulder1  1.74779 -4.09948 -16.2537
LeftArm  2.09496 -67.0666 -70.6253
LeftForeArm  26.2567 -34.7263 -6.23719
LeftHand  -0.332466 1.33151 9.43693
RightShoulder  9.28653 45.853 10.9094
RightArm  -33.9176 49.3972 6.69779
RightForeArm  11.2662 27.3959 5.30169
RightHand  0.21706 4.05354 2.39552
LeftUpLeg  -33.574 17.5136 -1.4777
LeftLeg  15.7381 -6.35424 -2.74057
LeftFoot  7.72858 -0.45861 2.44964
LeftToes  3.18074e-010 1.39432e-010 -7.71186e-011
666
root  -11.4216 39.3458 -42.9764 26.9996 -73.9864 -16.0391
RightUpLeg  -3.12905 -25.1671 -6.97438
RightLeg  44.9724 -2.29825 -2.76926
RightFoot  -6.92232 -0.925445 22.481
RightToes  6.35937e-011 1.2921e-014 -6.02303e-014
Spine  13.0572 3.95635 3.36825
Spine1  -2.83835 5.99175 -10.4662
HEad  -7.99837 6.8369 -3.76588
LeftShoulder1  1.68649 -3.70729 -16.6874
LeftArm  -13.7831 -64.688 -58.842
LeftForeArm  28.0901 -35.922 -6.44401
LeftHand  -0.323498 1.16407 8.83075
RightShoulder  8.9393 46.5107 9.86997
RightArm  -31.577 49.5967 8.12789
RightForeArm  12.4396 26.6852 5.0758
RightHand  0.48065 4.83635 5.14744
LeftUpLeg  -31.9563 16.8575 -0.0859548
LeftLeg  14.3569 -5.70551 -3.09147
LeftFoot  7.95545 -0.368215 1.8806
LeftToes  3.18074e-010 1.39432e-010 -7.71186e-011
667
root  -11.7886 39.4706 -43.2431 25.9255 -73.5335 -15.148
RightUpLeg  -2.12325 -23.2215 -8.27385
RightLeg  44.0834 -2.94188 -3.353
RightFoot  -6.9244 -0.855103 20.7285
RightToes  6.35937e-011 1.2921e-014 -6.02303e-014
Spine  12.3992 4.09339 3.69141
Spine1  -2.80811 6.07383 -10.107
HEad  -8.02085 9.03031 -4.04334
LeftShoulder1  1.72413 -3.53138 -17.9011
LeftArm  -25.8154 -59.5308 -48.6146
LeftForeArm  30.7263 -40.2341 -7.50147
LeftHand  -0.317581 1.50056 9.3805
RightShoulder  9.66919 47.04 11.198
RightArm  -26.7505 49.0405 11.6693
RightForeArm  12.3572 27.735 5.32008
RightHand  0.385251 4.35551 4.30101
LeftUpLeg  -30.367 15.8235 1.29214
LeftLeg  12.9222 -4.92524 -3.42564
LeftFoot  8.19965 -0.260442 1.22218
LeftToes  3.18074e-010 1.39432e-010 -7.71186e-011
668
root  -12.1103 39.5778 -43.5255 24.7393 -73.1109 -14.4246
RightUpLeg  -1.07695 -20.9591 -9.57473
RightLeg  42.4119 -3.51052 -3.72277
RightFoot  -7.24999 -0.755543 19.5816
RightToes  6.35937e-011 1.2921e-014 -6.02303e-014
Spine  12.1331 4.17376 3.96183
Spine1  -3.00976 6.07676 -9.68141
HEad  -7.81778 10.8886 -4.21397
LeftShoulder1  1.77722 -3.17038 -20.1819
LeftArm  -32.5233 -52.8599 -40.811
LeftForeArm  32.8965 -44.9509 -8.88445
LeftHand  -0.309254 2.25098 11.2288
RightShoulder  12.3607 47.0655 16.8462
RightArm  -20.9053 46.7218 16.0821
RightForeArm  14.5548 30.2657 5.79594
RightHand  0.190363 3.89338 2.11452
LeftUpLeg  -28.6099 14.7657 2.70607
LeftLeg  11.5231 -4.08388 -3.75358
LeftFoot  8.53403 -0.207264 0.885948
LeftToes  3.18074e-010 1.39432e-010 -7.71186e-011
669
root  -12.3886 39.6599 -43.8272 22.8 -72.7904 -13.2031
RightUpLeg  0.0159651 -18.5371 -11.0937
RightLeg  39.949 -3.55737 -3.46735
RightFoot  -7.70187 -0.645869 18.5169
RightToes  6.35937e-011 1.2921e-014 -6.02303e-014
Spine  11.9911 4.08966 4.39508
Spine1  -2.98556 6.02068 -9.65036
HEad  -7.48872 12.5436 -4.23871
LeftShoulder1  1.75084 -2.62514 -22.2436
LeftArm  -36.2514 -44.4319 -34.9877
LeftForeArm  33.7204 -49.043 -10.3764
LeftHand  -0.284285 2.7381 12.1358
RightShoulder  16.156 45.5012 25.7918
RightArm  -12.7255 42.9299 20.2486
RightForeArm  14.7025 34.1792 6.78044
RightHand  0.0129874 3.39549 -0.072634
LeftUpLeg  -26.7421 14.056 3.80413
LeftLeg  10.2635 -3.64182 -4.14138
LeftFoot  8.83058 -0.104705 0.285756
LeftToes  3.18074e-010 1.39432e-010 -7.71186e-011
670
root  -12.6177 39.7204 -44.1738 21.6891 -72.6256 -12.8312
RightUpLeg  0.609982 -15.4494 -11.9579
RightLeg  36.7713 -3.69022 -3.21877
RightFoot  -8.44862 -0.511049 17.815
RightToes  6.35937e-011 1.2921e-014 -6.02303e-014
Spine  11.5389 4.09016 4.95088
Spine1  -2.45522 6.03354 -9.20091
HEad  -7.46818 14.022 -4.89421
LeftShoulder1  1.71533 -2.06416 -24.5995
LeftArm  -37.7983 -34.6959 -29.5845
LeftForeArm  32.2096 -51.752 -11.685
LeftHand  -0.251067 2.88722 11.2711
RightShoulder  19.0262 42.3942 34.4839
RightArm  -3.55733 37.6598 23.5186
RightForeArm  15.1757 37.3462 7.63154
RightHand  -0.0404287 3.08202 -0.784347
LeftUpLeg  -25.1461 13.9193 4.86267
LeftLeg  9.25895 -3.54 -4.43696
LeftFoot  9.05631 -0.00726327 -0.266915
LeftToes  3.18074e-010 1.39432e-010 -7.71186e-011
671
root  -12.7715 39.7273 -44.5805 20.1265 -72.5553 -12.0295
RightUpLeg  0.770998 -12.4662 -12.8585
RightLeg  33.3219 -3.07902 -2.42558
RightFoot  -9.08814 -0.406149 17.3662
RightToes  6.35937e-011 1.2921e-014 -6.02303e-014
Spine  11.0181 4.05315 5.27947
Spine1  -1.53021 5.98225 -8.58401
HEad  -7.7305 15.454 -6.23022
LeftShoulder1  1.64876 -1.44736 -27.1852
LeftArm  -36.5991 -24.8947 -24.2708
LeftForeArm  29.2113 -51.62 -11.8662
LeftHand  -0.237406 2.80698 10.2966
RightShoulder  20.2841 38.2314 41.5858
RightArm  6.43724 31.3686 25.0224
RightForeArm  14.512 39.0582 8.1838
RightHand  -0.0477104 2.78918 -0.893541
LeftUpLeg  -23.8927 13.6616 5.68518
LeftLeg  8.65167 -3.35949 -4.4836
LeftFoot  9.25942 0.115275 -0.945504
LeftToes  3.18074e-010 1.39432e-010 -7.71186e-011
672
root  -12.852 39.6619 -45.083 18.1805 -72.5691 -10.8202
RightUpLeg  0.3127 -9.34036 -13.6734
RightLeg  30.0696 -1.96461 -1.46589
RightFoot  -10.2334 -0.234205 16.8708
RightToes  6.35937e-011 1.2921e-014 -6.02303e-014
Spine  10.6828 4.01269 5.30739
Spine1  -0.787054 5.87453 -7.93409
HEad  -7.76124 16.8541 -7.46706
LeftShoulder1  1.51671 -0.835381 -28.8755
LeftArm  -32.0097 -15.7003 -20.4712
LeftForeArm  25.8711 -47.617 -10.384
LeftHand  -0.248696 2.4727 9.60534
RightShoulder  20.1363 33.7454 46.8219
RightArm  16.8209 25.3725 25.2708
RightForeArm  12.9173 36.7321 7.59399
RightHand  -0.0312612 2.82994 -0.659677
LeftUpLeg  -23.1671 13.9081 6.19542
LeftLeg  8.67292 -3.61663 -4.48058
LeftFoot  9.3671 0.235515 -1.60232
LeftToes  3.18074e-010 1.39432e-010 -7.71186e-011
673
root  -12.8605 39.5488 -45.6899 15.7881 -72.5251 -9.29863
RightUpLeg  -0.587135 -5.17616 -14.0129
RightLeg  27.1409 -2.18266 -1.44301
RightFoot  -11.4465 -0.0628666 16.636
RightToes  6.35937e-011 1.2921e-014 -6.02303e-014
Spine  10.6478 3.88284 5.20781
Spine1  -0.244577 5.64647 -7.22482
HEad  -7.44199 18.2364 -8.54136
LeftShoulder1  1.36672 -0.319303 -29.6789
LeftArm  -24.5999 -7.86739 -18.5135
LeftForeArm  21.2436 -40.6456 -8.23792
LeftHand  -0.261709 1.92894 8.59362
RightShoulder  19.2736 29.9223 50.1657
RightArm  28.3849 20.1695 24.9735
RightForeArm  8.49762 30.3042 6.14679
RightHand  -0.00884624 3.21101 -0.355476
LeftUpLeg  -22.6486 14.3237 6.61009
LeftLeg  9.0152 -4.14878 -4.38468
LeftFoot  9.55719 0.347899 -2.20321
LeftToes  3.18074e-010 1.39432e-010 -7.71186e-011
674
root  -12.8104 39.3613 -46.4122 13.4813 -72.1789 -7.88559
RightUpLeg  -1.88564 -0.132023 -13.8159
RightLeg  24.8174 -2.22573 -1.34553
RightFoot  -12.3587 0.0530243 15.3902
RightToes  6.35937e-011 1.2921e-014 -6.02303e-014
Spine  10.6753 3.63142 5.12467
Spine1  0.221703 5.26451 -6.41687
HEad  -6.56178 19.5991 -9.10906
LeftShoulder1  1.24753 0.031026 -29.8511
LeftArm  -13.6445 -1.67794 -18.1905
LeftForeArm  14.0656 -31.9841 -6.2461
LeftHand  -0.275798 1.34607 7.82413
RightShoulder  18.1847 26.8634 52.181
RightArm  41.6724 16.1773 24.5678
RightForeArm  0.241689 20.8986 6.4223
RightHand  0.00899336 3.60392 -0.137115
LeftUpLeg  -22.7143 15.2588 6.90286
LeftLeg  9.98362 -5.63273 -4.26424
LeftFoot  9.60554 0.54619 -3.27214
LeftToes  3.18074e-010 1.39432e-010 -7.71186e-011
675
root  -12.7158 39.1051 -47.2734 11.5629 -71.1729 -7.0417
RightUpLeg  -2.88707 6.78986 -12.6765
RightLeg  22.436 -3.10502 -1.62546
RightFoot  -13.374 0.17185 14.7551
RightToes  6.35937e-011 1.2921e-014 -6.02303e-014
Spine  10.9865 3.31382 4.86299
Spine1  0.521406 4.64685 -4.85355
HEad  -5.80098 20.4968 -9.47879
LeftShoulder1  1.16596 0.259758 -29.8665
LeftArm  1.23679 2.5192 -19.3638
LeftForeArm  3.46854 -22.2864 -5.10658
LeftHand  -0.266506 0.857758 6.79
RightShoulder  17.3225 24.5024 53.9101
RightArm  22.9014 14.0165 21.3672
RightForeArm  20.0915 4.81267 16.6582
RightHand  0.0543906 3.6626 0.441822
LeftUpLeg  -23.2495 16.3252 7.22644
LeftLeg  11.3903 -7.85987 -4.00208
LeftFoot  9.68585 0.758433 -4.40504
LeftToes  3.18074e-010 1.39432e-010 -7.71186e-011
